<svg width="100" height="100" viewBox="0 0 100 100" fill="none" xmlns="http://www.w3.org/2000/svg">
<path d="M20 20H70V80H20V20Z" fill="#4A90E2"/>
<path d="M70 20L80 30V90L70 80V20Z" fill="#3A80D2"/>
<path d="M70 80L80 90H30L20 80H70Z" fill="#3A80D2"/>
<path d="M71 21V81V21ZM72 22V82V22ZM73 23V83V23ZM74 24V84V24ZM75 25V85V25ZM76 26V86V26ZM77 27V87V27ZM78 28V88V28ZM79 29V89V29Z" fill="black"/>
<path d="M71 21V81M72 22V82M73 23V83M74 24V84M75 25V85M76 26V86M77 27V87M78 28V88M79 29V89" stroke="white" stroke-width="0.5"/>
<path d="M21.5 80.5L71 81L21.5 80.5ZM23 81.5L72 82L23 81.5ZM24 82.5L73 83L24 82.5ZM25 83.5L74 84L25 83.5ZM25.7178 84.5L75 85L25.7178 84.5ZM26.5 85.5L76 86L26.5 85.5ZM27.5 86.5L77 87L27.5 86.5ZM28.5 87.5L78 88L28.5 87.5ZM29.5 88.5L79 89L29.5 88.5Z" fill="black"/>
<path d="M21.5 80.5L71 81M23 81.5L72 82M24 82.5L73 83M25 83.5L74 84M25.7178 84.5L75 85M26.5 85.5L76 86M27.5 86.5L77 87M28.5 87.5L78 88M29.5 88.5L79 89" stroke="white" stroke-width="0.5"/>
<path d="M33.3667 58.2C32.3222 58.2 31.3833 57.9667 30.55 57.5C29.7278 57.0333 29.0778 56.4 28.6 55.6C28.1333 54.7889 27.9 53.8889 27.9 52.9C27.9 51.9556 28.1278 51.1 28.5833 50.3333C29.0389 49.5556 29.65 48.9389 30.4167 48.4833C31.1944 48.0278 32.05 47.8 32.9833 47.8C33.9056 47.8 34.75 48.0222 35.5167 48.4667C36.2833 48.9 36.8944 49.4889 37.35 50.2333C37.8056 50.9778 38.0333 51.8222 38.0333 52.7667V53.5H31.5C31.2111 53.5 30.9167 53.4889 30.6167 53.4667C30.3167 53.4444 30.0222 53.4111 29.7333 53.3667C29.8556 54.2556 30.2556 55 30.9333 55.6C31.6222 56.2 32.4389 56.5 33.3833 56.5C34.0167 56.5 34.6056 56.3556 35.15 56.0667C35.6944 55.7778 36.1333 55.3944 36.4667 54.9167L36.9667 56.9667C36.4889 57.3556 35.9389 57.6611 35.3167 57.8833C34.7056 58.0944 34.0556 58.2 33.3667 58.2ZM29.6833 52.15C30.2833 52.05 30.8889 52 31.5 52H34.8167C35.0611 52 35.3 52.0111 35.5333 52.0333C35.7778 52.0444 36.0222 52.0611 36.2667 52.0833C36.1111 51.3056 35.7222 50.6667 35.1 50.1667C34.4778 49.6556 33.7722 49.4 32.9833 49.4C32.1722 49.4 31.4611 49.6722 30.85 50.2167C30.2389 50.75 29.85 51.3944 29.6833 52.15ZM44.7193 58.1333C43.8082 58.1333 42.9748 57.9056 42.2193 57.45C41.4637 56.9833 40.8582 56.3611 40.4026 55.5833C39.9582 54.8056 39.7359 53.9444 39.7359 53C39.7359 52.0556 39.9582 51.1944 40.4026 50.4167C40.8582 49.6389 41.4637 49.0222 42.2193 48.5667C42.9748 48.1 43.8082 47.8667 44.7193 47.8667C45.3748 47.8667 45.9915 47.9833 46.5693 48.2167C47.147 48.45 47.6582 48.7722 48.1026 49.1833V42H49.9026V58H48.2359V56.6833C47.7915 57.1278 47.2637 57.4833 46.6526 57.75C46.0526 58.0056 45.4082 58.1333 44.7193 58.1333ZM44.9526 56.5C45.5859 56.5 46.1582 56.3444 46.6693 56.0333C47.1915 55.7111 47.6026 55.2889 47.9026 54.7667C48.2137 54.2333 48.3693 53.6444 48.3693 53C48.3693 52.3556 48.2137 51.7722 47.9026 51.25C47.6026 50.7167 47.1915 50.2944 46.6693 49.9833C46.1582 49.6611 45.5859 49.5 44.9526 49.5C44.3193 49.5 43.7415 49.6611 43.2193 49.9833C42.7082 50.2944 42.297 50.7167 41.9859 51.25C41.6859 51.7722 41.5359 52.3556 41.5359 53C41.5359 53.6444 41.6859 54.2333 41.9859 54.7667C42.297 55.2889 42.7082 55.7111 43.2193 56.0333C43.7415 56.3444 44.3193 56.5 44.9526 56.5ZM56.9089 58.2C56.2089 58.2 55.5533 58.0278 54.9422 57.6833C54.3311 57.3278 53.8366 56.8167 53.4589 56.15C53.0811 55.4833 52.8922 54.6833 52.8922 53.75V48H54.6922V53.5C54.6922 54.2889 54.9255 54.9889 55.3922 55.6C55.87 56.2 56.5366 56.5 57.3922 56.5C58.0922 56.5 58.7144 56.25 59.2589 55.75C59.8144 55.2389 60.0922 54.5056 60.0922 53.55V48H61.8922V58H60.2255V56.3833C59.8589 56.9722 59.3811 57.4222 58.7922 57.7333C58.2144 58.0444 57.5866 58.2 56.9089 58.2Z" fill="white"/>
</svg>
